# xmcd CD database file
#
# Track frame offsets:
#	183
#	14645
#	28270
#	41333
#	53758
#	68383
#	81933
#	95773
#	107533
#	118703
#	131378
#	154758
#	173045
#	196403
#	215333
#	233270
#	275095
#	298690
#
# Disc length: 4444 seconds
#
# Revision: 0
# Processed by: cddbd v1.4PL0 Copyright (c) Steve Scherf et al.
# Submitted via: CDex 1.50beta9
#
DISCID=f5115a12
DTITLE=DIZZY GILLESPIE - 18 TOP TRACKS
DYEAR=1989
DGENRE=Jazz
TTITLE0=LITTLE JOHN SPECIAL
TTITLE1=I CAN'T GET STARTED
TTITLE2=BLUE'N BOOGIE
TTITLE3=ALL THE THINGS YOU ARE
TTITLE4=SALT PEANUTS
TTITLE5=SHAW 'NUFF
TTITLE6=52ND STRECT THEME 
TTITLE7=ANTHROPOLOGY
TTITLE8=OUE DELIGHT
TTITLE9=THINGS TO COME
TTITLE10=A NIGHT IN TUNISIA
TTITLE11=DIZZY ATMOSPHERE
TTITLE12=GROOVIN' HIGH
TTITLE13=ON E BASS HIT
TTITLE14=THE SQUIRREL
TTITLE15=MANTECA
TTITLE16=SOULPHONY IN THREE HEARTS
TTITLE17=MARRIAGE BLUES
EXTD=YEAR: 1989
EXTT0=
EXTT1=
EXTT2=
EXTT3=
EXTT4=
EXTT5=
EXTT6=
EXTT7=
EXTT8=
EXTT9=
EXTT10=
EXTT11=
EXTT12=
EXTT13=
EXTT14=
EXTT15=
EXTT16=
EXTT17=
PLAYORDER=
